<?xml version="1.0" encoding="utf-8"?>
<!-- Generator: Adobe Illustrator 18.0.0, SVG Export Plug-In . SVG Version: 6.00 Build 0)  -->
<!DOCTYPE svg PUBLIC "-//W3C//DTD SVG 1.1//EN" "http://www.w3.org/Graphics/SVG/1.1/DTD/svg11.dtd">
<svg version="1.1" id="Layer_1" xmlns="http://www.w3.org/2000/svg" xmlns:xlink="http://www.w3.org/1999/xlink" x="0px" y="0px"
	 viewBox="0 0 800 200" enable-background="new 0 0 800 200" xml:space="preserve">
<path fill="#FFFFFF" d="M0,6v188c0,3.3,2.7,6,6,6h188c3.3,0,6-2.7,6-6V6c0-3.3-2.7-6-6-6H6C2.7,0,0,2.7,0,6z M166.8,117.5
	c-3.7,3.8-8.6,5.4-13.5,6.5c-17.2,3.8-32.5-0.3-45.9-11.7c-1.3-1.1-2.6-2.4-3.9-3.4c-3-2.4-4.5-2.1-7.2,0.8
	c-2.1,2.3-4.3,4.6-6.8,6.5c-10.9,8-23.3,12-36.8,11.3c-12.6-0.7-25.4-9.5-27.5-26.1C24,92,27.3,84.7,34.9,79.2
	c0.4-0.3,0.8-0.5,1.2-0.7c0.2-0.1,0.4,0,1,0c-0.7,1.1-1.3,2.1-1.9,3c-2.8,4-3.6,8.5-2.3,13.2c1.5,5.3,5.3,7.7,10.8,6.9
	c3.8-0.6,7.1-2.4,9.8-5c3.9-3.6,7.4-7.5,11.2-11.2c3-2.9,5.9-6,9.2-8.4c6.2-4.4,13.1-5.1,20-1.8c1.6,0.7,2.9,2.1,4.3,3.2
	s2.7,1.1,4-0.4c2.5-2.8,5.6-4.6,9.3-5.4c5.1-1.1,9.5,0.6,13.7,3.2c5.9,3.6,10.6,8.7,15.5,13.5c3.8,3.8,7.7,7.5,13.1,8.8
	c2.1,0.5,4.4,0.8,6.6,0.8c2.2,0,3.8-1.4,4.9-3.2c3.3-5.6,3.7-12-1.6-18.1c-0.5-0.5-0.8-1.2-1.3-1.8c0.2-0.1,0.3-0.2,0.5-0.3
	c6.2,3.6,10.9,8.4,11.8,16C175.9,101.4,173.7,110.2,166.8,117.5z"/>
<text transform="matrix(1 0 0 1 292 -186)" font-family="'Montserrat-Bold'" font-size="12">uncle</text>
<g>
	<path fill="#FFFFFF" d="M303.1,132.7c13.2,0,22.3-9,22.3-23.8V42.6h29.8V109c0,30.1-20.2,49.2-52.3,49.2c-32.3,0-53-19.1-53-49.2
		V42.6h29.8V109C279.8,123.6,289.6,132.7,303.1,132.7z"/>
	<path fill="#FFFFFF" d="M401.8,42.6l51.8,68.8V42.6h27.7v114.2h-26.1l-51.8-68.4v68.4h-27.9V42.6H401.8z"/>
	<path fill="#FFFFFF" d="M557.9,67.1c-17.6,0-31,13.9-31,32.1c0,18.4,13.4,32.4,31,32.4c9.4,0,20.4-5.2,28.4-13.4l17.4,18.7
		c-12.2,12.9-30.5,21.2-47.4,21.2c-34.4,0-60-25.1-60-58.7c0-32.9,26.2-57.7,61.1-57.7c16.9,0,34.7,7.5,46.1,19.5l-17.3,20.7
		C578.8,73,567.9,67.1,557.9,67.1z"/>
	<path fill="#FFFFFF" d="M646.3,42.6v88.8h48.4v25.4h-78.2V42.6H646.3z"/>
	<path fill="#FFFFFF" d="M798.4,42.6v23.8h-60.3v21.3h54.4v23.6l-54.4,0.2v21.5H800v23.8h-91.7V42.6H798.4z"/>
</g>
</svg>
